<svg xmlns="http://www.w3.org/2000/svg" style="display: none;"><symbol id="home" viewBox="0 0 64 64"><title>home</title><path d="m6 37v24h52v-37l-26-22-26 21z" fill="#fff"/><path d="m32 2-3.07 2.48 23.07 19.52v37h6v-37z" opacity=".1"/><path d="m26 34h12a4 4 0 0 1 4 4v24a0 0 0 0 1 0 0h-20a0 0 0 0 1 0 0v-24a4 4 0 0 1 4-4z" fill="#f78c8c"/><path d="m38 34h-6a4 4 0 0 1 4 4v24h6v-24a4 4 0 0 0 -4-4z" opacity=".1"/><circle cx="30" cy="48" fill="#fff" r="2"/><path d="m63.28 24.46-10.28-8.56v-6.9a2 2 0 0 0 -4 0v3.56l-13.16-10.96a6 6 0 0 0 -7.68 0l-27.44 22.86a2 2 0 0 0 2.56 3.08l27.44-22.87a2 2 0 0 1 2.56 0l22.72 18.93v34.4a2 2 0 0 1 -2 2h-10v-22a6 6 0 0 0 -6-6h-12a6 6 0 0 0 -6 6v22h-10a2 2 0 0 1 -2-2v-24a2 2 0 0 0 -4 0v24a6 6 0 0 0 6 6h44a6 6 0 0 0 6-6v-31.06l.72.6a2 2 0 0 0 1.28.46 2 2 0 0 0 1.28-3.54zm-39.28 35.54v-22a2 2 0 0 1 2-2h12a2 2 0 0 1 2 2v22z" fill="#1b1464"/></symbol><symbol id="clock-time" viewBox="0 0 64 64"><title>clock-time</title><path d="m53.38 53.05a30 30 0 1 0 -6.55 5" fill="#ce93d8"/><circle cx="32" cy="32" fill="#fff" r="3"/><path d="m32 2c-.84 0-1.67 0-2.5.11a30 30 0 0 1 18.88 50.94l-6.55 5a29.81 29.81 0 0 1 -12.35 3.81c.83.07 1.67.11 2.52.11a29.79 29.79 0 0 0 14.83-3.92l6.55-5a30 30 0 0 0 -21.38-51.05z" opacity=".1"/><g fill="#fff"><path d="m16.32 48.53a2 2 0 1 0 -1.88-1.32 2 2 0 0 0 1.88 1.32z"/><path d="m14.88 18a2 2 0 0 0 -2.78.54 24.05 24.05 0 0 0 -2.66 21.67 2 2 0 0 0 1.88 1.32 2.09 2.09 0 0 0 .69-.12 2 2 0 0 0 1.19-2.57 20.05 20.05 0 0 1 2.21-18 2 2 0 0 0 -.53-2.84z"/><path d="m34 12v-2a2 2 0 0 0 -4 0v2a2 2 0 0 0 4 0z"/><path d="m32 50a2 2 0 0 0 -2 2v2a2 2 0 0 0 4 0v-2a2 2 0 0 0 -2-2z"/><path d="m54 34a2 2 0 0 0 0-4h-2a2 2 0 0 0 0 4z"/></g><path d="m48.41 15.59a2 2 0 0 0 -2.82 0l-11 11a6 6 0 1 0 -4.59 11.06v6.35a2 2 0 0 0 4 0v-6.35a6 6 0 0 0 3.41-8.23l11-11a2 2 0 0 0 0-2.83zm-16.41 18.41a2 2 0 1 1 2-2 2 2 0 0 1 -2 2z" fill="#1b1464"/><path d="m32 0a32 32 0 1 0 15.82 59.82 2 2 0 1 0 -2-3.47 28.1 28.1 0 1 1 6.18-4.71 2 2 0 0 0 2.85 2.81 32 32 0 0 0 -22.85-54.45z" fill="#1b1464"/></symbol><symbol id="timer" viewBox="0 0 64 64"><title>timer</title><path d="m10.62 53.05a30 30 0 1 1 6.55 5" fill="#fff59d"/><circle cx="32" cy="32" fill="#fff" r="4"/><path d="m32 2c-.84 0-1.67 0-2.5.11a30 30 0 0 1 0 59.78c.82.06 1.64.11 2.48.11a30 30 0 0 0 .02-60z" opacity=".1"/><path d="m45.8 45.85a2 2 0 1 0 2.56-1.2 2 2 0 0 0 -2.56 1.2z" fill="#fff"/><path d="m52 41.41a2.09 2.09 0 0 0 .69.12 2 2 0 0 0 1.88-1.32 24.05 24.05 0 0 0 -2.67-21.63 2 2 0 1 0 -3.31 2.24 20.05 20.05 0 0 1 2.21 18 2 2 0 0 0 1.2 2.59z" fill="#fff"/><g fill="#1b1464"><path d="m32 0a32 32 0 0 0 -22.8 54.45 2 2 0 0 0 2.85-2.81 27.85 27.85 0 1 1 6.11 4.71 2 2 0 1 0 -2 3.47 32 32 0 1 0 15.84-59.82z"/><path d="m54.16 3.62a36.31 36.31 0 0 1 6.22 6.23 2 2 0 1 0 3.16-2.46 40.46 40.46 0 0 0 -6.92-6.92 2 2 0 1 0 -2.46 3.15z"/><path d="m32 38a6 6 0 1 0 -2.58-11.41l-11-11a2 2 0 0 0 -2.82 2.82l11 11a6 6 0 0 0 5.4 8.59zm2-6a2 2 0 1 1 -2-2 2 2 0 0 1 2 2z"/></g></symbol><symbol id="lamp" viewBox="0 0 64 64"><title>lamp</title><path d="m29 56h6v5h-6z" fill="#fff"/><path d="m24 47h16v7h-16z" fill="#fff"/><path d="m21.11 38.75a4.07 4.07 0 0 1 1.89 3.38v.87a4 4 0 0 0 4 4h10a4 4 0 0 0 4-4v-.87a4.07 4.07 0 0 1 1.89-3.38 20 20 0 1 0 -27.56-5.75" fill="#fff59d"/><path d="m30 56h5v5h-5z" opacity=".1"/><path d="m35 47h5v7h-5z" opacity=".1"/><path d="m30.92 2c-.46 0-.91.08-1.36.14a20 20 0 0 1 8.33 36.58 4.07 4.07 0 0 0 -1.89 3.41v.87a4 4 0 0 1 -4 4h5a4 4 0 0 0 4-4v-.87a4.07 4.07 0 0 1 1.89-3.38 20 20 0 0 0 -11.97-36.75z" opacity=".1"/><path d="m39.85 28.17a2 2 0 1 0 2.81-.32 2 2 0 0 0 -2.81.32z" fill="#fff"/><path d="m46 22a14 14 0 0 0 -14.77-14 2 2 0 0 0 -1.89 2.1 2 2 0 0 0 2.1 1.9 10 10 0 0 1 10.56 10 2 2 0 0 0 4 0z" fill="#fff"/><g fill="#1b1464"><path d="m47.14 6a21.83 21.83 0 0 0 -16.33-6 22.26 22.26 0 0 0 -20.81 22 21.86 21.86 0 0 0 3.67 12.16 2 2 0 1 0 3.33-2.23 17.87 17.87 0 0 1 -3-9.93 18.19 18.19 0 0 1 17-18 18 18 0 0 1 10.8 33.08 6 6 0 0 0 -2.8 5.05v.87a2 2 0 0 1 -2 2h-10a2 2 0 0 1 -2-2v-.87a6 6 0 0 0 -2.8-5.05 2 2 0 1 0 -2.2 3.35 2.07 2.07 0 0 1 1 1.7v.87a6 6 0 0 0 1.54 4 6 6 0 0 0 3.46 9.91v1.09a6 6 0 0 0 12 0v-1.09a6 6 0 0 0 3.46-9.91 6 6 0 0 0 1.54-4v-.87a2.07 2.07 0 0 1 1-1.7 22 22 0 0 0 3.14-34.43zm-13.14 52a2 2 0 0 1 -4 0v-1h4zm3-5h-10a2 2 0 0 1 0-4h10a2 2 0 0 1 0 4z"/><path d="m8.25 7.14-1.73-1a2 2 0 0 0 -2 3.46l1.73 1a2 2 0 0 0 2.75-.73 2 2 0 0 0 -.75-2.73z"/><path d="m6.25 35.4-1.73 1a2 2 0 0 0 1 3.73 1.91 1.91 0 0 0 1-.27l1.73-1a2 2 0 1 0 -2-3.46z"/><path d="m62 21h-2a2 2 0 0 0 0 4h2a2 2 0 0 0 0-4z"/><path d="m56.75 10.87a2 2 0 0 0 1-.27l1.73-1a2 2 0 0 0 -2-3.46l-1.73 1a2 2 0 0 0 1 3.73z"/><path d="m59.48 36.4-1.73-1a2 2 0 1 0 -2 3.46l1.73 1a1.91 1.91 0 0 0 1 .27 2 2 0 0 0 1-3.73z"/><path d="m6 23a2 2 0 0 0 -2-2h-2a2 2 0 0 0 0 4h2a2 2 0 0 0 2-2z"/></g></symbol></svg>